<svg width="61" height="61" viewBox="0 0 61 61" fill="none" xmlns="http://www.w3.org/2000/svg">
<g clip-path="url(#clip0_5_76)">
<path d="M31.2625 57.4417C31.0084 57.4417 30.7542 57.4417 30.5 57.4417C29.9917 57.4417 29.7375 57.1875 29.2292 56.6791L12.9625 39.9041C11.9459 38.8875 11.9459 37.3625 12.9625 36.3458C13.9792 35.3291 15.5042 35.3291 16.5209 36.3458L31.0084 51.3416L50.5792 31.2625C52.1042 29.7375 53.1209 27.9583 53.6292 26.1791C55.1542 21.35 53.8834 16.5208 50.5792 12.9625C49.0542 11.1833 46.7667 10.1666 44.225 10.1666C40.6667 10.1666 36.6 12.2 33.0417 15.7583C32.5334 16.2666 32.025 16.5208 31.2625 16.5208C30.5 16.5208 29.9917 16.2666 29.4834 15.7583C25.925 12.2 21.8584 10.1666 18.0459 10.1666C15.5042 10.1666 13.4709 11.1833 11.4375 12.9625C8.38753 16.0125 7.1167 20.5875 8.13337 25.1625C8.6417 26.6875 7.62503 27.9583 6.3542 28.2125C5.08337 28.4666 3.55837 27.7041 3.3042 26.4333C1.7792 20.3333 3.55837 13.9791 8.13337 9.40415C10.9292 6.60831 14.2334 5.08331 18.0459 5.08331C22.3667 5.08331 26.9417 7.11665 31.0084 10.675C35.3292 7.11665 39.9042 5.08331 44.225 5.08331C48.0375 5.08331 51.5959 6.60831 54.3917 9.40415C59.2209 14.2333 60.7459 21.0958 58.7125 27.7041C57.95 30.2458 56.425 32.7875 54.3917 34.8208L33.0417 56.6791C32.5334 57.1875 32.025 57.4417 31.2625 57.4417Z" fill="#4361EE"/>
<path d="M30.7542 42.1916C29.4834 42.1916 28.7209 41.4291 28.2125 40.4124L25.1625 30.4999L24.4 33.0416C24.1459 34.0583 23.1292 34.8208 21.8584 34.8208H5.08335C3.55835 34.8208 2.54169 33.8041 2.54169 32.2791C2.54169 30.7541 3.55835 29.7374 5.08335 29.7374H20.0792L22.3667 21.0958C22.875 20.0791 23.8917 19.3166 24.9084 19.3166C25.925 19.3166 26.9417 20.0791 27.45 21.0958L31.0084 32.2791L34.3125 23.8916C34.8209 22.8749 35.5834 22.3666 36.6 22.3666C37.6167 22.3666 38.6334 23.1291 38.8875 23.8916L41.175 29.7374H44.7334C46.2584 29.7374 47.275 30.7541 47.275 32.2791C47.275 33.8041 46.2584 34.8208 44.7334 34.8208H39.3959C38.3792 34.8208 37.3625 34.0583 37.1084 33.2958L36.6 31.7708L33.0417 40.6666C32.7875 41.6833 31.7709 42.1916 30.7542 42.1916Z" fill="#4361EE"/>
</g>
<defs>
<clipPath id="clip0_5_76">
<rect width="57.1875" height="52.3583" fill="white" transform="translate(2.54169 5.08331)"/>
</clipPath>
</defs>
</svg>
